<svg xmlns="http://www.w3.org/2000/svg" width="31" height="31" viewBox="0 0 31 31">
  <g id="Group_754" data-name="Group 754" transform="translate(0.371 0.192)">
    <g id="Ellipse_44" data-name="Ellipse 44" transform="translate(-0.371 -0.192)" fill="none" stroke="#d7d9dc" stroke-width="1">
      <circle cx="15.5" cy="15.5" r="15.5" stroke="none"/>
      <circle cx="15.5" cy="15.5" r="15" fill="none"/>
    </g>
    <path id="Path_3436" data-name="Path 3436" d="M7.587,0c1.563.061,3.127.117,4.69.188a8.148,8.148,0,0,1,1.1.132,1.921,1.921,0,0,1,1.608,1.675A18.245,18.245,0,0,1,15.22,5.85c-.03.9-.117,1.8-.2,2.7a2.024,2.024,0,0,1-.918,1.607,2.57,2.57,0,0,1-1.161.335,43.063,43.063,0,0,1-4.736.2c-1.585-.008-3.171-.056-4.756-.107A13.508,13.508,0,0,1,1.9,10.424,1.868,1.868,0,0,1,.274,8.814C.16,8.133.1,7.442.048,6.752A21.961,21.961,0,0,1,.082,3.408,12.506,12.506,0,0,1,.29,1.855,1.918,1.918,0,0,1,2.043.276,41.531,41.531,0,0,1,6.507.049c.359-.006.719,0,1.078,0,0-.016,0-.032,0-.049M6.11,7.647l3.955-2.278L6.11,3.091Z" transform="translate(7.788 10.059)" fill="#dcdee1"/>
  </g>
</svg>
