<svg id="Group_557" data-name="Group 557" xmlns="http://www.w3.org/2000/svg" xmlns:xlink="http://www.w3.org/1999/xlink" width="156" height="27.258" viewBox="0 0 156 27.258">
  <defs>
    <clipPath id="clip-path">
      <rect id="Rectangle_50960" data-name="Rectangle 50960" width="156" height="27.258" fill="#dcdee1"/>
    </clipPath>
  </defs>
  <g id="Group_547" data-name="Group 547" transform="translate(0 0)" clip-path="url(#clip-path)">
    <path id="Path_3399" data-name="Path 3399" d="M48.369,2.866,46.995,4.951a8.2,8.2,0,0,1,2.333,5.73v5.895a8.246,8.246,0,0,1-8.236,8.236H10.682a8.246,8.246,0,0,1-8.236-8.236V10.682a8.245,8.245,0,0,1,8.236-8.236H40.648L42.341.075A10.716,10.716,0,0,0,41.091,0H10.682A10.682,10.682,0,0,0,0,10.682v5.895A10.682,10.682,0,0,0,10.682,27.258h30.41A10.682,10.682,0,0,0,51.773,16.577V10.682a10.651,10.651,0,0,0-3.4-7.816" transform="translate(0 0)" fill="#dcdee1"/>
    <path id="Path_3400" data-name="Path 3400" d="M34.692,14.752c0,1.4.1,2.8-.021,4.189a5.329,5.329,0,0,1-4.919,5.118,8.514,8.514,0,0,1-4.3-.418,5.049,5.049,0,0,1-3.224-3.966,9.685,9.685,0,0,1-.2-1.894c0-2.158-.086-4.326.092-6.471.252-3.041,2.162-4.842,5.223-5.154a9.009,9.009,0,0,1,3.362.226A5.273,5.273,0,0,1,34.674,11.3c.1,1.141.018,2.3.018,3.448m-2.427.367h-.047c0-.988.036-1.977-.008-2.963a3.586,3.586,0,0,0-1.494-3.146,4.692,4.692,0,0,0-3.222-.5,3.015,3.015,0,0,0-2.789,2.83c-.119,2.359-.167,4.728-.079,7.088a3.1,3.1,0,0,0,2.457,3.215,5.848,5.848,0,0,0,1.707.161A3.163,3.163,0,0,0,32.1,18.811c.157-1.217.114-2.46.161-3.692" transform="translate(-6.436 -1.782)" fill="#dcdee1"/>
    <path id="Path_3401" data-name="Path 3401" d="M49.363,15.406l-4.648,6.827H41.776l6.169-8.773-6.05-8.732h3.052l4.523,6.711C51.018,9.165,56.889.57,56.889.57l1.6-.155.386,1.568s-5.929,8.48-7.949,11.338l6.188,8.906H53.993l-4.63-6.82" transform="translate(-12.214 -0.121)" fill="#dcdee1"/>
    <path id="Path_3402" data-name="Path 3402" d="M15.126,24.021H12.645V9.524l-3.772.725V7.8l6.254-1.3Z" transform="translate(-2.594 -1.898)" fill="#dcdee1"/>
    <path id="Path_3403" data-name="Path 3403" d="M195.534,25.649h2.4c.137,1.317,1.021,1.857,2.2,2.084a5.194,5.194,0,0,0,2.79-.163,2.276,2.276,0,0,0,1.615-2.114c.045-.693.008-1.391.008-2.017a13.02,13.02,0,0,1-1.908.831,8.06,8.06,0,0,1-3.908.056,3.8,3.8,0,0,1-3.145-3.308,29.075,29.075,0,0,1-.115-5.776,4.31,4.31,0,0,1,3.8-4.021,8.593,8.593,0,0,1,4.852.279,4.256,4.256,0,0,1,2.891,3.58,10.567,10.567,0,0,1,.108,1.533c.01,2.8,0,5.594,0,8.391a6.143,6.143,0,0,1-.49,2.455,4.018,4.018,0,0,1-2.574,2.313,8.886,8.886,0,0,1-5.916-.11,3.823,3.823,0,0,1-2.618-4.012m9.015-7.886h0c0-.617.036-1.237-.009-1.85a2.409,2.409,0,0,0-1.685-2.273,4.789,4.789,0,0,0-3.084-.038,2.332,2.332,0,0,0-1.778,2.251c-.054,1.291-.053,2.589.007,3.881a2.3,2.3,0,0,0,1.653,2.157,5.03,5.03,0,0,0,2.731.136,2.549,2.549,0,0,0,2.165-2.537c.018-.575,0-1.151,0-1.727" transform="translate(-57.122 -3.216)" fill="#dcdee1"/>
    <path id="Path_3404" data-name="Path 3404" d="M100.709,23.83H98.177V5.852h2.528v4.911A6.825,6.825,0,0,1,106.4,9.677a4.112,4.112,0,0,1,3.33,3.446,8.069,8.069,0,0,1,.139,1.4c.013,2.962.008,9.284.008,9.284h-2.523s0-5.989-.007-8.664a5.4,5.4,0,0,0-.134-1.282,2.6,2.6,0,0,0-2.665-1.96,6.042,6.042,0,0,0-1.888.166,2.441,2.441,0,0,0-1.942,2.575c-.013,2.819-.006,5.636-.007,8.454Z" transform="translate(-28.703 -1.711)" fill="#dcdee1"/>
    <path id="Path_3405" data-name="Path 3405" d="M156.884,9.8h3.036l-4.437,6.685,4.644,7.34h-3.108l-3.727-6.255h-3.024v6.237h-2.56V5.851h2.509v9.3h3.172l3.5-5.357" transform="translate(-43.183 -1.711)" fill="#dcdee1"/>
    <path id="Path_3406" data-name="Path 3406" d="M138.595,25.326h-2.538s0-5.964,0-8.6a5.814,5.814,0,0,0-.115-1.347,2.558,2.558,0,0,0-2.519-1.977,6.509,6.509,0,0,0-1.833.1,2.446,2.446,0,0,0-2.141,2.6c-.023,2.119-.01,4.238-.012,6.357,0,.941,0,1.882,0,2.857h-2.571s-.017-6.305.006-9.247a4.617,4.617,0,0,1,3.755-4.806,8.925,8.925,0,0,1,4.744.132,4.288,4.288,0,0,1,3.2,4.2c.088,3.167.028,6.336.03,9.505Z" transform="translate(-37.087 -3.219)" fill="#dcdee1"/>
    <path id="Path_3407" data-name="Path 3407" d="M81.614,8.8H76.147V6.5H89.611V8.781H84.195v15.21H81.614Z" transform="translate(-22.262 -1.9)" fill="#dcdee1"/>
    <rect id="Rectangle_50958" data-name="Rectangle 50958" width="2.482" height="14.023" transform="translate(84.219 8.095)" fill="#dcdee1"/>
    <rect id="Rectangle_50959" data-name="Rectangle 50959" width="2.491" height="14.029" transform="translate(118.696 8.091)" fill="#dcdee1"/>
    <path id="Path_3408" data-name="Path 3408" d="M170.418,5.813a1.218,1.218,0,0,0-1.177-1.362,4.395,4.395,0,0,0-.858.007,1.193,1.193,0,0,0-1.058,1.424h0A1.218,1.218,0,0,0,168.5,7.245a4.395,4.395,0,0,0,.858-.007,1.193,1.193,0,0,0,1.058-1.424Z" transform="translate(-48.918 -1.296)" fill="#dcdee1"/>
    <path id="Path_3409" data-name="Path 3409" d="M121.675,5.813A1.218,1.218,0,0,0,120.5,4.451a4.4,4.4,0,0,0-.858.007,1.193,1.193,0,0,0-1.058,1.424h0a1.218,1.218,0,0,0,1.178,1.362,4.388,4.388,0,0,0,.857-.007,1.194,1.194,0,0,0,1.059-1.424Z" transform="translate(-34.667 -1.296)" fill="#dcdee1"/>
    <path id="Path_3410" data-name="Path 3410" d="M187.322,25.326h-2.538s0-5.964,0-8.6a5.814,5.814,0,0,0-.115-1.347,2.558,2.558,0,0,0-2.519-1.977,6.509,6.509,0,0,0-1.833.1,2.446,2.446,0,0,0-2.141,2.6c-.023,2.119-.01,4.238-.012,6.357,0,.941,0,1.882,0,2.857h-2.571s-.017-6.305.006-9.247a4.617,4.617,0,0,1,3.755-4.806,8.924,8.924,0,0,1,4.744.132,4.288,4.288,0,0,1,3.2,4.2c.088,3.167.028,6.336.03,9.505Z" transform="translate(-51.333 -3.219)" fill="#dcdee1"/>
    <path id="Path_3411" data-name="Path 3411" d="M213.522,6.306a2.734,2.734,0,0,1,4.668,1.93,2.735,2.735,0,0,1-5.469,0,2.622,2.622,0,0,1,.8-1.93m.14,3.732a2.532,2.532,0,0,0,4.324-1.8,2.462,2.462,0,0,0-.74-1.8,2.537,2.537,0,0,0-4.329,1.8,2.455,2.455,0,0,0,.744,1.8m2.851-2.323a.762.762,0,0,1-.566.8l.635,1.118h-.4l-.587-1.05h-.584v1.05h-.362v-2.8h.839a1.05,1.05,0,0,1,.763.257.831.831,0,0,1,.264.619m-1.5.522h.491q.65,0,.65-.522a.483.483,0,0,0-.166-.385.719.719,0,0,0-.483-.144h-.491Z" transform="translate(-62.191 -1.611)" fill="#dcdee1"/>
  </g>
</svg>
