<svg xmlns="http://www.w3.org/2000/svg" width="93.212" height="28.283" viewBox="0 0 93.212 28.283">
  <g id="Group_739" data-name="Group 739" transform="translate(-252.785 -5467.281)">
    <rect id="Rectangle_50994" data-name="Rectangle 50994" width="3.227" height="21.808" transform="translate(276.72 5473.308)" fill="#fff"/>
    <path id="Path_3413" data-name="Path 3413" d="M68.572,35.836a4.1,4.1,0,0,0,1.643,2.614,5.277,5.277,0,0,0,3.137.911,4.378,4.378,0,0,0,3.854-1.852l2.659,1.554a7.394,7.394,0,0,1-6.542,3.256,7.984,7.984,0,0,1-5.885-2.225A7.6,7.6,0,0,1,65.2,34.462a7.685,7.685,0,0,1,2.211-5.6A7.6,7.6,0,0,1,73.083,26.6a6.985,6.985,0,0,1,5.392,2.3,7.976,7.976,0,0,1,2.107,5.586,10.018,10.018,0,0,1-.12,1.344Zm-.03-2.629h8.783a4.155,4.155,0,0,0-4.272-3.675,4.537,4.537,0,0,0-2.988.986,4.446,4.446,0,0,0-1.523,2.689" transform="translate(218.245 5453.186)" fill="#fff"/>
    <path id="Path_3414" data-name="Path 3414" d="M115.92,26.993h3.227V41.93H115.92V39.779a6.044,6.044,0,0,1-5.228,2.54,7,7,0,0,1-5.258-2.286,7.769,7.769,0,0,1-2.181-5.571,7.755,7.755,0,0,1,2.181-5.586,7.027,7.027,0,0,1,5.258-2.271,6.068,6.068,0,0,1,5.228,2.51Zm-8.1,10.889a4.871,4.871,0,0,0,6.752,0,5.024,5.024,0,0,0,0-6.841,4.873,4.873,0,0,0-6.752,0,5.024,5.024,0,0,0,0,6.841" transform="translate(198.082 5453.187)" fill="#fff"/>
    <path id="Path_3415" data-name="Path 3415" d="M149.556,29.636a4.569,4.569,0,0,1,4.6-2.778v3.5a4.784,4.784,0,0,0-3.227.881,3.81,3.81,0,0,0-1.374,3.3v7.528h-3.227V27.127h3.227Z" transform="translate(175.261 5453.052)" fill="#fff"/>
    <path id="Path_3416" data-name="Path 3416" d="M177.185,26.6a5.5,5.5,0,0,1,4.152,1.643,6.229,6.229,0,0,1,1.584,4.511V41.93h-3.227V33.088a3.476,3.476,0,0,0-.9-2.569,3.312,3.312,0,0,0-2.45-.9,3.69,3.69,0,0,0-2.748,1.06,4.451,4.451,0,0,0-1.046,3.242V41.93h-3.227V26.994h3.227v1.911a5.085,5.085,0,0,1,4.631-2.3" transform="translate(163.076 5453.186)" fill="#fff"/>
    <path id="Path_3417" data-name="Path 3417" d="M22.4,2.4,21.924.447A.6.6,0,0,0,21.3,0l-1.99.192a.585.585,0,0,0-.428.253s-6.292,9.21-8.729,12.79L5.016,5.619a.587.587,0,0,0-.488-.26H.736a.588.588,0,0,0-.483.923L7.535,16.794.107,27.356a.588.588,0,0,0,.481.926H4.24a.587.587,0,0,0,.486-.257l5.287-7.767,5.267,7.757a.587.587,0,0,0,.487.258h3.878a.588.588,0,0,0,.483-.923L12.676,16.624c2.659-3.769,9.581-13.669,9.639-13.752A.59.59,0,0,0,22.4,2.4" transform="translate(252.785 5467.281)" fill="#31fb84"/>
    <rect id="Rectangle_50995" data-name="Rectangle 50995" width="93.212" height="28.283" transform="translate(252.785 5467.281)" fill="none"/>
  </g>
</svg>
