<svg xmlns="http://www.w3.org/2000/svg" width="119.052" height="36.123" viewBox="0 0 119.052 36.123">
  <g id="Group_718" data-name="Group 718" transform="translate(-252.785 -5467.281)">
    <rect id="Rectangle_50994" data-name="Rectangle 50994" width="4.122" height="27.854" transform="translate(283.355 5474.979)" fill="#002333"/>
    <path id="Path_3413" data-name="Path 3413" d="M69.508,38.4a5.235,5.235,0,0,0,2.1,3.338A6.74,6.74,0,0,0,75.613,42.9a5.592,5.592,0,0,0,4.922-2.366l3.4,1.984a9.444,9.444,0,0,1-8.355,4.159,10.2,10.2,0,0,1-7.516-2.842A9.713,9.713,0,0,1,65.2,36.64a9.816,9.816,0,0,1,2.824-7.154A9.709,9.709,0,0,1,75.269,26.6a8.921,8.921,0,0,1,6.887,2.938,10.188,10.188,0,0,1,2.69,7.135,12.8,12.8,0,0,1-.153,1.717Zm-.038-3.358H80.687a5.306,5.306,0,0,0-5.456-4.693A5.8,5.8,0,0,0,71.415,31.6a5.679,5.679,0,0,0-1.946,3.434" transform="translate(226.743 5456.654)" fill="#002333"/>
    <path id="Path_3414" data-name="Path 3414" d="M119.431,27.1h4.121V46.178h-4.121V43.431a7.719,7.719,0,0,1-6.678,3.244,8.945,8.945,0,0,1-6.715-2.919,9.923,9.923,0,0,1-2.785-7.116,9.9,9.9,0,0,1,2.785-7.135,8.974,8.974,0,0,1,6.715-2.9,7.751,7.751,0,0,1,6.678,3.206Zm-10.34,13.908a6.222,6.222,0,0,0,8.623,0,6.417,6.417,0,0,0,0-8.738,6.223,6.223,0,0,0-8.623,0,6.417,6.417,0,0,0,0,8.738" transform="translate(211.541 5456.654)" fill="#002333"/>
    <path id="Path_3415" data-name="Path 3415" d="M150.45,30.407q1.564-3.548,5.876-3.549v4.465a6.111,6.111,0,0,0-4.122,1.125,4.866,4.866,0,0,0-1.755,4.216v9.615h-4.121V27.2h4.121Z" transform="translate(194.334 5456.553)" fill="#002333"/>
    <path id="Path_3416" data-name="Path 3416" d="M179.363,26.6a7.031,7.031,0,0,1,5.3,2.1,7.955,7.955,0,0,1,2.023,5.761V46.179h-4.121V34.885a4.44,4.44,0,0,0-1.145-3.281,4.23,4.23,0,0,0-3.129-1.145,4.713,4.713,0,0,0-3.51,1.354,5.685,5.685,0,0,0-1.336,4.14V46.179h-4.121V27.1h4.121v2.441a6.5,6.5,0,0,1,5.914-2.938" transform="translate(185.147 5456.654)" fill="#002333"/>
    <path id="Path_3417" data-name="Path 3417" d="M28.614,3.059,28,.571A.762.762,0,0,0,27.2,0L24.659.249a.748.748,0,0,0-.547.324S16.076,12.336,12.963,16.907L6.407,7.177a.749.749,0,0,0-.623-.332H.94A.751.751,0,0,0,.323,8.024l9.3,13.425L.137,34.94a.752.752,0,0,0,.614,1.183H5.415a.75.75,0,0,0,.621-.329l6.753-9.921,6.727,9.908a.75.75,0,0,0,.622.33H25.09a.751.751,0,0,0,.617-1.179l-9.518-13.7C19.585,16.419,28.427,3.774,28.5,3.669a.753.753,0,0,0,.114-.61" transform="translate(252.785 5467.281)" fill="#31fb84"/>
    <rect id="Rectangle_50995" data-name="Rectangle 50995" width="119.051" height="36.123" transform="translate(252.785 5467.281)" fill="none"/>
  </g>
</svg>
