<svg id="Group_548" data-name="Group 548" xmlns="http://www.w3.org/2000/svg" xmlns:xlink="http://www.w3.org/1999/xlink" width="220.45" height="38.52" viewBox="0 0 220.45 38.52">
  <defs>
    <clipPath id="clip-path">
      <rect id="Rectangle_50960" data-name="Rectangle 50960" width="220.45" height="38.52" transform="translate(0 0)" fill="#dcdee1"/>
    </clipPath>
  </defs>
  <g id="Group_547" data-name="Group 547" clip-path="url(#clip-path)">
    <path id="Path_3399" data-name="Path 3399" d="M68.353,4.05,66.41,7a11.589,11.589,0,0,1,3.3,8.1v8.33A11.653,11.653,0,0,1,58.068,35.064H15.1A11.653,11.653,0,0,1,3.456,23.425V15.1A11.652,11.652,0,0,1,15.1,3.456H57.441L59.834.106A15.143,15.143,0,0,0,58.068,0H15.1A15.1,15.1,0,0,0,0,15.1v8.33a15.1,15.1,0,0,0,15.1,15.1H58.068a15.1,15.1,0,0,0,15.1-15.1V15.1A15.051,15.051,0,0,0,68.353,4.05" fill="#dcdee1"/>
    <path id="Path_3400" data-name="Path 3400" d="M39.93,18.329c0,1.974.139,3.96-.03,5.919a7.531,7.531,0,0,1-6.951,7.232,12.031,12.031,0,0,1-6.073-.59,7.135,7.135,0,0,1-4.556-5.6,13.687,13.687,0,0,1-.276-2.677c0-3.049-.121-6.113.13-9.144.356-4.3,3.055-6.843,7.381-7.283a12.73,12.73,0,0,1,4.751.32,7.452,7.452,0,0,1,5.6,6.955c.142,1.613.025,3.248.025,4.873m-3.429.519-.067,0c0-1.4.051-2.794-.012-4.187-.08-1.759-.49-3.406-2.111-4.446A6.63,6.63,0,0,0,29.758,9.5a4.26,4.26,0,0,0-3.941,4c-.168,3.333-.236,6.682-.112,10.016a4.376,4.376,0,0,0,3.472,4.543,8.264,8.264,0,0,0,2.412.227c2.731-.152,4.34-1.547,4.685-4.224.222-1.72.161-3.476.227-5.217" fill="#dcdee1"/>
    <path id="Path_3401" data-name="Path 3401" d="M52.5,21.6l-6.568,9.648H41.776l8.718-12.4c-2.837-4.093-5.657-8.163-8.55-12.339h4.313L52.649,16C54.836,12.78,63.133.634,63.133.634L65.395.415l.546,2.216S57.562,14.614,54.708,18.653l8.744,12.585H59.04L52.5,21.6" fill="#dcdee1"/>
    <path id="Path_3402" data-name="Path 3402" d="M17.71,31.263H14.2V10.776L8.872,11.8V8.335L17.71,6.493Z" fill="#dcdee1"/>
    <path id="Path_3403" data-name="Path 3403" d="M195.6,31.7h3.4c.193,1.861,1.443,2.624,3.11,2.945a7.34,7.34,0,0,0,3.943-.231,3.217,3.217,0,0,0,2.282-2.987c.064-.979.012-1.966.012-2.85a18.4,18.4,0,0,1-2.7,1.174,11.39,11.39,0,0,1-5.522.079,5.364,5.364,0,0,1-4.445-4.674,41.087,41.087,0,0,1-.163-8.163c.25-3.177,2.305-5.039,5.371-5.682a12.144,12.144,0,0,1,6.857.394,6.014,6.014,0,0,1,4.085,5.059,14.933,14.933,0,0,1,.153,2.166c.014,3.952.007,7.905.006,11.857a8.681,8.681,0,0,1-.692,3.469,5.678,5.678,0,0,1-3.637,3.269,12.558,12.558,0,0,1-8.36-.156,5.4,5.4,0,0,1-3.7-5.669m12.739-11.144h0c0-.872.051-1.748-.013-2.615a3.4,3.4,0,0,0-2.381-3.212,6.768,6.768,0,0,0-4.358-.053,3.3,3.3,0,0,0-2.513,3.181c-.077,1.825-.075,3.659.01,5.484a3.251,3.251,0,0,0,2.336,3.048,7.108,7.108,0,0,0,3.859.192A3.6,3.6,0,0,0,208.331,23c.026-.812,0-1.627,0-2.44" fill="#dcdee1"/>
    <path id="Path_3404" data-name="Path 3404" d="M101.755,31.258H98.177V5.852h3.573v6.94c2.5-1.948,5.249-2.007,8.045-1.535a5.811,5.811,0,0,1,4.706,4.869,11.4,11.4,0,0,1,.2,1.985c.019,4.186.012,13.119.012,13.119h-3.566s.006-8.464-.01-12.243a7.628,7.628,0,0,0-.189-1.811c-.424-1.68-1.635-2.6-3.766-2.77a8.539,8.539,0,0,0-2.668.234,3.449,3.449,0,0,0-2.745,3.639c-.019,3.983-.009,7.965-.01,11.947Z" fill="#dcdee1"/>
    <path id="Path_3405" data-name="Path 3405" d="M160.675,11.428h4.291l-6.27,9.447c2.183,3.452,4.346,6.871,6.562,10.373h-4.392c-1.728-2.9-3.491-5.859-5.267-8.839h-4.274v8.814h-3.618V5.851h3.546V19h4.483l4.939-7.57" fill="#dcdee1"/>
    <path id="Path_3406" data-name="Path 3406" d="M143.445,31.24h-3.586s.007-8.428-.007-12.149a8.215,8.215,0,0,0-.162-1.9,3.615,3.615,0,0,0-3.559-2.794,9.2,9.2,0,0,0-2.591.145,3.456,3.456,0,0,0-3.026,3.675c-.033,2.994-.014,5.989-.017,8.984,0,1.33,0,2.66,0,4.037h-3.633s-.024-8.91.008-13.068a6.524,6.524,0,0,1,5.306-6.792,12.612,12.612,0,0,1,6.7.186A6.059,6.059,0,0,1,143.4,17.5c.124,4.475.04,8.954.042,13.432Z" fill="#dcdee1"/>
    <path id="Path_3407" data-name="Path 3407" d="M83.873,9.749H76.147V6.5H95.173V9.724H87.52V31.218H83.873Z" fill="#dcdee1"/>
    <rect id="Rectangle_50958" data-name="Rectangle 50958" width="3.508" height="19.816" transform="translate(119.013 11.44)" fill="#dcdee1"/>
    <rect id="Rectangle_50959" data-name="Rectangle 50959" width="3.52" height="19.825" transform="translate(167.735 11.434)" fill="#dcdee1"/>
    <path id="Path_3408" data-name="Path 3408" d="M171.7,6.383a1.721,1.721,0,0,0-1.663-1.925,6.21,6.21,0,0,0-1.212.01,1.685,1.685,0,0,0-1.495,2.013h-.005a1.721,1.721,0,0,0,1.663,1.925A6.21,6.21,0,0,0,170.2,8.4a1.685,1.685,0,0,0,1.495-2.013Z" fill="#dcdee1"/>
    <path id="Path_3409" data-name="Path 3409" d="M122.955,6.383a1.721,1.721,0,0,0-1.663-1.925,6.211,6.211,0,0,0-1.212.01,1.685,1.685,0,0,0-1.5,2.013h0a1.721,1.721,0,0,0,1.664,1.925,6.2,6.2,0,0,0,1.211-.01,1.687,1.687,0,0,0,1.5-2.013Z" fill="#dcdee1"/>
    <path id="Path_3410" data-name="Path 3410" d="M192.172,31.24h-3.586s.007-8.428-.007-12.149a8.216,8.216,0,0,0-.162-1.9,3.615,3.615,0,0,0-3.559-2.794,9.2,9.2,0,0,0-2.591.145,3.456,3.456,0,0,0-3.026,3.675c-.033,2.994-.014,5.989-.017,8.984,0,1.33,0,2.66,0,4.037h-3.633s-.024-8.91.008-13.068a6.524,6.524,0,0,1,5.306-6.792,12.612,12.612,0,0,1,6.7.186A6.059,6.059,0,0,1,192.13,17.5c.124,4.475.04,8.954.042,13.432Z" fill="#dcdee1"/>
    <path id="Path_3411" data-name="Path 3411" d="M213.853,6.635a3.864,3.864,0,0,1,6.6,2.728,3.865,3.865,0,0,1-7.729,0,3.7,3.7,0,0,1,1.132-2.728m.2,5.274a3.579,3.579,0,0,0,6.111-2.546,3.479,3.479,0,0,0-1.046-2.546,3.574,3.574,0,0,0-5.065,0A3.469,3.469,0,0,0,213,9.363a3.469,3.469,0,0,0,1.052,2.546m4.029-3.283a1.077,1.077,0,0,1-.8,1.132l.9,1.58h-.566l-.83-1.484h-.825v1.484h-.512V7.388h1.185a1.484,1.484,0,0,1,1.078.363,1.174,1.174,0,0,1,.373.875m-2.124.737h.694q.918,0,.918-.737a.683.683,0,0,0-.235-.544,1.016,1.016,0,0,0-.683-.2h-.694Z" fill="#dcdee1"/>
  </g>
</svg>
