<svg xmlns="http://www.w3.org/2000/svg" width="121" height="36.714" viewBox="0 0 121 36.714">
  <g id="Group_695" data-name="Group 695" transform="translate(-252.785 -5467.281)">
    <rect id="Rectangle_50994" data-name="Rectangle 50994" width="4.189" height="28.31" transform="translate(283.855 5475.104)" fill="#fff"/>
    <path id="Path_3413" data-name="Path 3413" d="M69.579,38.588a5.321,5.321,0,0,0,2.133,3.393,6.85,6.85,0,0,0,4.072,1.183,5.684,5.684,0,0,0,5-2.4l3.451,2.017A9.6,9.6,0,0,1,75.745,47a10.364,10.364,0,0,1-7.64-2.889A9.872,9.872,0,0,1,65.2,36.8a9.976,9.976,0,0,1,2.87-7.271A9.867,9.867,0,0,1,75.434,26.6a9.067,9.067,0,0,1,7,2.986,10.354,10.354,0,0,1,2.734,7.252,13,13,0,0,1-.156,1.745Zm-.039-3.413h11.4a5.393,5.393,0,0,0-5.545-4.77,5.89,5.89,0,0,0-3.878,1.28,5.772,5.772,0,0,0-1.978,3.49" transform="translate(227.384 5456.916)" fill="#fff"/>
    <path id="Path_3414" data-name="Path 3414" d="M119.7,27.109h4.188V46.5H119.7V43.706a7.845,7.845,0,0,1-6.787,3.3,9.091,9.091,0,0,1-6.825-2.967,10.085,10.085,0,0,1-2.831-7.232,10.066,10.066,0,0,1,2.831-7.251,9.121,9.121,0,0,1,6.825-2.948,7.877,7.877,0,0,1,6.787,3.258Zm-10.51,14.135a6.324,6.324,0,0,0,8.764,0,6.522,6.522,0,0,0,0-8.881,6.325,6.325,0,0,0-8.764,0,6.522,6.522,0,0,0,0,8.881" transform="translate(212.556 5456.916)" fill="#fff"/>
    <path id="Path_3415" data-name="Path 3415" d="M150.517,30.465q1.589-3.606,5.973-3.607V31.4a6.211,6.211,0,0,0-4.189,1.144,4.946,4.946,0,0,0-1.784,4.285V46.6h-4.188V27.207h4.188Z" transform="translate(195.773 5456.817)" fill="#fff"/>
    <path id="Path_3416" data-name="Path 3416" d="M179.527,26.6a7.146,7.146,0,0,1,5.39,2.133,8.086,8.086,0,0,1,2.056,5.855V46.5h-4.188V35.02a4.513,4.513,0,0,0-1.163-3.335,4.3,4.3,0,0,0-3.18-1.163,4.79,4.79,0,0,0-3.568,1.376,5.778,5.778,0,0,0-1.357,4.208V46.5h-4.188V27.11h4.188v2.481a6.6,6.6,0,0,1,6.011-2.986" transform="translate(186.812 5456.916)" fill="#fff"/>
    <path id="Path_3417" data-name="Path 3417" d="M29.083,3.109,28.46.58A.774.774,0,0,0,27.646,0l-2.583.25a.76.76,0,0,0-.556.329s-8.167,11.956-11.331,16.6L6.512,7.295a.761.761,0,0,0-.634-.338H.955a.764.764,0,0,0-.627,1.2L9.782,21.8.139,35.512a.764.764,0,0,0,.624,1.2H5.5a.762.762,0,0,0,.631-.334L13,26.3l6.837,10.07a.762.762,0,0,0,.632.335H25.5a.763.763,0,0,0,.627-1.2L16.455,21.581C19.906,16.688,28.892,3.836,28.967,3.729a.766.766,0,0,0,.115-.62" transform="translate(252.785 5467.281)" fill="#31fb84"/>
    <rect id="Rectangle_50995" data-name="Rectangle 50995" width="121" height="36.714" transform="translate(252.785 5467.281)" fill="none"/>
  </g>
</svg>
