<svg id="Component_31_2" data-name="Component 31 – 2" xmlns="http://www.w3.org/2000/svg" width="44" height="44" viewBox="0 0 44 44">
  <g id="Ellipse_44" data-name="Ellipse 44" fill="none" stroke="#d7d9dc" stroke-width="1">
    <circle cx="22" cy="22" r="22" stroke="none"/>
    <circle cx="22" cy="22" r="21.5" fill="none"/>
  </g>
  <path id="Path_3436" data-name="Path 3436" d="M10.835,0c2.233.087,4.466.167,6.7.268a11.636,11.636,0,0,1,1.572.188,2.743,2.743,0,0,1,2.3,2.392,26.058,26.058,0,0,1,.334,5.507c-.043,1.288-.167,2.575-.291,3.859a2.891,2.891,0,0,1-1.311,2.294,3.67,3.67,0,0,1-1.658.479,61.5,61.5,0,0,1-6.764.279c-2.264-.012-4.529-.079-6.792-.153a19.292,19.292,0,0,1-2.205-.225,2.667,2.667,0,0,1-2.324-2.3c-.163-.973-.253-1.96-.323-2.945A31.365,31.365,0,0,1,.117,4.867a17.861,17.861,0,0,1,.3-2.218A2.739,2.739,0,0,1,2.918.395,59.313,59.313,0,0,1,9.293.071c.513-.009,1.027,0,1.54,0,0-.023,0-.046,0-.069M8.727,10.922l5.649-3.254L8.727,4.414Z" transform="translate(11.122 14.366)" fill="#dcdee1"/>
</svg>
