<svg id="Group_686" data-name="Group 686" xmlns="http://www.w3.org/2000/svg" xmlns:xlink="http://www.w3.org/1999/xlink" width="179.646" height="31.39" viewBox="0 0 179.646 31.39">
  <defs>
    <clipPath id="clip-path">
      <rect id="Rectangle_50960" data-name="Rectangle 50960" width="179.646" height="31.39" fill="#dcdee1"/>
    </clipPath>
  </defs>
  <g id="Group_547" data-name="Group 547" transform="translate(0 0)" clip-path="url(#clip-path)">
    <path id="Path_3399" data-name="Path 3399" d="M55.7,3.3,54.118,5.7A9.444,9.444,0,0,1,56.8,12.3v6.788a9.5,9.5,0,0,1-9.485,9.485H12.3a9.5,9.5,0,0,1-9.485-9.485V12.3A9.5,9.5,0,0,1,12.3,2.816H46.809l1.95-2.73A12.34,12.34,0,0,0,47.32,0H12.3A12.3,12.3,0,0,0,0,12.3v6.788a12.3,12.3,0,0,0,12.3,12.3H47.32a12.3,12.3,0,0,0,12.3-12.3V12.3a12.265,12.265,0,0,0-3.92-9" transform="translate(0 0)" fill="#dcdee1"/>
    <path id="Path_3400" data-name="Path 3400" d="M36.614,16.065c0,1.609.113,3.227-.024,4.823a6.137,6.137,0,0,1-5.664,5.893,9.8,9.8,0,0,1-4.949-.481,5.815,5.815,0,0,1-3.713-4.568,11.154,11.154,0,0,1-.225-2.181c0-2.485-.1-4.982.106-7.451.29-3.5,2.49-5.576,6.015-5.935a10.374,10.374,0,0,1,3.872.261,6.072,6.072,0,0,1,4.563,5.668c.116,1.314.02,2.647.02,3.971m-2.794.423-.055,0c0-1.138.042-2.277-.01-3.412a4.129,4.129,0,0,0-1.72-3.623,5.4,5.4,0,0,0-3.71-.578,3.472,3.472,0,0,0-3.212,3.259c-.137,2.716-.192,5.445-.091,8.162A3.566,3.566,0,0,0,27.851,24a6.735,6.735,0,0,0,1.966.185,3.643,3.643,0,0,0,3.818-3.442c.181-1.4.131-2.833.185-4.251" transform="translate(-4.075 -1.128)" fill="#dcdee1"/>
    <path id="Path_3401" data-name="Path 3401" d="M50.513,17.679,45.16,25.541H41.776l7.1-10.1C46.568,12.1,44.27,8.787,41.913,5.383h3.515l5.209,7.729C52.419,10.491,59.18.593,59.18.593L61.023.415l.445,1.806s-6.828,9.765-9.154,13.056L59.44,25.533h-3.6l-5.332-7.854" transform="translate(-7.733 -0.077)" fill="#dcdee1"/>
    <path id="Path_3402" data-name="Path 3402" d="M16.074,26.678H13.217V9.983l-4.344.834V7.994l7.2-1.5Z" transform="translate(-1.642 -1.202)" fill="#dcdee1"/>
    <path id="Path_3403" data-name="Path 3403" d="M195.556,27.869h2.767c.157,1.517,1.176,2.138,2.534,2.4a5.982,5.982,0,0,0,3.213-.188,2.622,2.622,0,0,0,1.86-2.434c.052-.8.01-1.6.01-2.322a14.993,14.993,0,0,1-2.2.957,9.282,9.282,0,0,1-4.5.064,4.371,4.371,0,0,1-3.622-3.809,33.482,33.482,0,0,1-.133-6.652c.2-2.589,1.878-4.106,4.377-4.63a9.9,9.9,0,0,1,5.588.321,4.9,4.9,0,0,1,3.329,4.123,12.17,12.17,0,0,1,.125,1.765c.011,3.22.006,6.442,0,9.662a7.074,7.074,0,0,1-.564,2.827,4.627,4.627,0,0,1-2.964,2.664,10.233,10.233,0,0,1-6.813-.127,4.4,4.4,0,0,1-3.014-4.62m10.381-9.081h0c0-.711.042-1.424-.011-2.131a2.774,2.774,0,0,0-1.94-2.617A5.515,5.515,0,0,0,200.433,14a2.685,2.685,0,0,0-2.048,2.592c-.063,1.487-.061,2.982.008,4.469a2.649,2.649,0,0,0,1.9,2.484,5.792,5.792,0,0,0,3.145.156,2.936,2.936,0,0,0,2.493-2.921c.021-.662,0-1.326,0-1.988" transform="translate(-36.165 -2.036)" fill="#dcdee1"/>
    <path id="Path_3404" data-name="Path 3404" d="M101.093,26.555H98.177V5.852h2.912v5.655c2.036-1.587,4.277-1.636,6.556-1.251a4.735,4.735,0,0,1,3.835,3.968,9.292,9.292,0,0,1,.16,1.618c.015,3.411.01,10.691.01,10.691h-2.906s0-6.9-.008-9.977a6.216,6.216,0,0,0-.154-1.476c-.346-1.369-1.332-2.122-3.069-2.257a6.958,6.958,0,0,0-2.174.191,2.811,2.811,0,0,0-2.237,2.965c-.015,3.246-.007,6.491-.008,9.736Z" transform="translate(-18.172 -1.083)" fill="#dcdee1"/>
    <path id="Path_3405" data-name="Path 3405" d="M158.275,10.4h3.5l-5.109,7.7,5.347,8.453H158.43l-4.292-7.2h-3.483v7.183h-2.948V5.851h2.89V16.565h3.653l4.025-6.169" transform="translate(-27.34 -1.083)" fill="#dcdee1"/>
    <path id="Path_3406" data-name="Path 3406" d="M140.374,27.5h-2.922s.006-6.868-.006-9.9a6.694,6.694,0,0,0-.132-1.551,2.946,2.946,0,0,0-2.9-2.277,7.5,7.5,0,0,0-2.111.118,2.816,2.816,0,0,0-2.466,2.995c-.027,2.44-.011,4.88-.014,7.321,0,1.084,0,2.168,0,3.29h-2.961s-.02-7.261.007-10.649a5.317,5.317,0,0,1,4.324-5.535,10.277,10.277,0,0,1,5.463.152A4.937,4.937,0,0,1,140.34,16.3c.1,3.647.033,7.3.034,10.946Z" transform="translate(-23.48 -2.038)" fill="#dcdee1"/>
    <path id="Path_3407" data-name="Path 3407" d="M82.443,9.147h-6.3V6.5h15.5V9.127H85.415V26.642H82.443Z" transform="translate(-14.094 -1.203)" fill="#dcdee1"/>
    <rect id="Rectangle_50958" data-name="Rectangle 50958" width="2.859" height="16.148" transform="translate(96.984 9.323)" fill="#dcdee1"/>
    <rect id="Rectangle_50959" data-name="Rectangle 50959" width="2.868" height="16.155" transform="translate(136.688 9.318)" fill="#dcdee1"/>
    <path id="Path_3408" data-name="Path 3408" d="M170.888,6.022a1.4,1.4,0,0,0-1.355-1.569,5.061,5.061,0,0,0-.988.008,1.373,1.373,0,0,0-1.218,1.64h0a1.4,1.4,0,0,0,1.355,1.569,5.061,5.061,0,0,0,.988-.008,1.373,1.373,0,0,0,1.218-1.64Z" transform="translate(-30.971 -0.821)" fill="#dcdee1"/>
    <path id="Path_3409" data-name="Path 3409" d="M122.145,6.022a1.4,1.4,0,0,0-1.355-1.569,5.061,5.061,0,0,0-.988.008,1.373,1.373,0,0,0-1.218,1.64h0a1.4,1.4,0,0,0,1.356,1.569,5.053,5.053,0,0,0,.987-.008,1.374,1.374,0,0,0,1.219-1.64Z" transform="translate(-21.948 -0.821)" fill="#dcdee1"/>
    <path id="Path_3410" data-name="Path 3410" d="M189.1,27.5h-2.922s.006-6.868-.006-9.9a6.7,6.7,0,0,0-.132-1.551,2.946,2.946,0,0,0-2.9-2.277,7.5,7.5,0,0,0-2.111.118,2.817,2.817,0,0,0-2.466,2.995c-.027,2.44-.011,4.88-.014,7.321,0,1.084,0,2.168,0,3.29h-2.961s-.02-7.261.007-10.649a5.317,5.317,0,0,1,4.324-5.535,10.277,10.277,0,0,1,5.463.152,4.937,4.937,0,0,1,3.684,4.841c.1,3.647.033,7.3.034,10.946Z" transform="translate(-32.5 -2.038)" fill="#dcdee1"/>
    <path id="Path_3411" data-name="Path 3411" d="M213.643,6.427a3.149,3.149,0,0,1,5.376,2.223,3.149,3.149,0,0,1-6.3,0,3.019,3.019,0,0,1,.922-2.223m.161,4.3a2.916,2.916,0,0,0,4.98-2.075,2.835,2.835,0,0,0-.852-2.075,2.921,2.921,0,0,0-4.985,2.075,2.827,2.827,0,0,0,.857,2.075m3.283-2.675a.878.878,0,0,1-.652.922l.731,1.288h-.461L216.03,9.05h-.672v1.209h-.417V7.04h.966a1.21,1.21,0,0,1,.878.3.957.957,0,0,1,.3.713m-1.731.6h.566q.748,0,.748-.6a.557.557,0,0,0-.191-.443.828.828,0,0,0-.557-.165h-.566Z" transform="translate(-39.374 -1.02)" fill="#dcdee1"/>
  </g>
</svg>
