<svg xmlns="http://www.w3.org/2000/svg" width="101.523" height="30.804" viewBox="0 0 101.523 30.804">
  <g id="Group_729" data-name="Group 729" transform="translate(-252.785 -5467.281)">
    <rect id="Rectangle_50994" data-name="Rectangle 50994" width="3.515" height="23.753" transform="translate(278.854 5473.845)" fill="#fff"/>
    <path id="Path_3413" data-name="Path 3413" d="M68.873,36.659a4.464,4.464,0,0,0,1.789,2.847,5.748,5.748,0,0,0,3.416.993,4.769,4.769,0,0,0,4.2-2.017l2.9,1.692a8.053,8.053,0,0,1-7.125,3.546,8.7,8.7,0,0,1-6.41-2.424A8.283,8.283,0,0,1,65.2,35.163a8.37,8.37,0,0,1,2.408-6.1A8.279,8.279,0,0,1,73.786,26.6a7.608,7.608,0,0,1,5.873,2.505,8.688,8.688,0,0,1,2.294,6.085,10.91,10.91,0,0,1-.131,1.464ZM68.84,33.8h9.566a4.525,4.525,0,0,0-4.653-4A4.942,4.942,0,0,0,70.5,30.867,4.842,4.842,0,0,0,68.84,33.8" transform="translate(220.978 5454.301)" fill="#fff"/>
    <path id="Path_3414" data-name="Path 3414" d="M117.049,27.028h3.514V43.3h-3.514V40.953a6.582,6.582,0,0,1-5.694,2.766,7.628,7.628,0,0,1-5.727-2.489,8.462,8.462,0,0,1-2.375-6.068,8.446,8.446,0,0,1,2.375-6.084,7.653,7.653,0,0,1,5.727-2.474,6.609,6.609,0,0,1,5.694,2.734Zm-8.818,11.86a5.306,5.306,0,0,0,7.354,0,5.472,5.472,0,0,0,0-7.451,5.307,5.307,0,0,0-7.354,0,5.472,5.472,0,0,0,0,7.451" transform="translate(202.411 5454.302)" fill="#fff"/>
    <path id="Path_3415" data-name="Path 3415" d="M149.843,29.884a4.977,4.977,0,0,1,5.011-3.026v3.807a5.211,5.211,0,0,0-3.515.96,4.15,4.15,0,0,0-1.5,3.6v8.2h-3.514V27.151h3.514Z" transform="translate(181.395 5454.178)" fill="#fff"/>
    <path id="Path_3416" data-name="Path 3416" d="M177.886,26.6a6,6,0,0,1,4.523,1.79,6.784,6.784,0,0,1,1.725,4.913V43.3h-3.514V33.666a3.786,3.786,0,0,0-.976-2.8,3.608,3.608,0,0,0-2.668-.976,4.019,4.019,0,0,0-2.993,1.155,4.848,4.848,0,0,0-1.139,3.531V43.3h-3.514V27.029h3.514V29.11a5.539,5.539,0,0,1,5.043-2.505" transform="translate(170.175 5454.301)" fill="#fff"/>
    <path id="Path_3417" data-name="Path 3417" d="M24.4,2.609,23.878.487A.65.65,0,0,0,23.2,0L21.028.212a.638.638,0,0,0-.467.276s-6.853,10.032-9.507,13.93L5.463,6.12a.639.639,0,0,0-.532-.283H.8A.641.641,0,0,0,.276,6.843L8.207,18.291.117,29.8A.641.641,0,0,0,.641,30.8H4.618a.639.639,0,0,0,.53-.28l5.758-8.46,5.736,8.449a.639.639,0,0,0,.53.281H21.4a.64.64,0,0,0,.526-1.006L13.806,18.107C16.7,14,24.242,3.219,24.3,3.129a.642.642,0,0,0,.1-.52" transform="translate(252.785 5467.281)" fill="#31fb84"/>
    <rect id="Rectangle_50995" data-name="Rectangle 50995" width="101.522" height="30.804" transform="translate(252.785 5467.281)" fill="none"/>
  </g>
</svg>
